<svg xmlns="http://www.w3.org/2000/svg" version="1.1" xmlns:xlink="http://www.w3.org/1999/xlink" xmlns:svgjs="http://svgjs.com/svgjs" width="512" height="512" x="0" y="0" viewBox="0 0 32 32" style="enable-background:new 0 0 512 512" xml:space="preserve" class=""><g><path d="M16 2.5C7.453 2.5.5 9.453.5 18v5c0 3.563 2.883 6.464 6.44 6.497L10 29.5c1.379 0 2.5-1.121 2.5-2.5v-8c0-1.379-1.121-2.5-2.5-2.5l-3.06.003a6.453 6.453 0 0 0-3.416 1.014C3.781 10.849 9.271 5.5 16 5.5s12.219 5.349 12.476 12.017a6.453 6.453 0 0 0-3.415-1.014L22 16.5a2.502 2.502 0 0 0-2.5 2.5v8c0 1.379 1.121 2.5 2.5 2.5l3.06-.003c3.557-.033 6.44-2.934 6.44-6.497v-5c0-8.547-6.953-15.5-15.5-15.5zm-7.53 17H9.5v7H8.47zm-3 .368v6.264C4.308 25.562 3.5 24.38 3.5 23s.808-2.562 1.97-3.132zM23.53 26.5H22.5v-7h1.03zm3-.368v-6.264c1.162.57 1.97 1.753 1.97 3.132s-.808 2.562-1.97 3.132z" fill="#ffffff" data-original="#000000" class=""></path></g></svg>