<svg xmlns="http://www.w3.org/2000/svg" version="1.1" xmlns:xlink="http://www.w3.org/1999/xlink" xmlns:svgjs="http://svgjs.com/svgjs" width="512" height="512" x="0" y="0" viewBox="0 0 128 128" style="enable-background:new 0 0 512 512" xml:space="preserve" class=""><circle r="64" cx="64" cy="64" fill="#2c2c2c" shape="circle" transform="matrix(0.7,0,0,0.7,19.200000000000003,19.200000000000003)"></circle><g transform="matrix(-4.286263797015736e-17,-0.7,-0.7,4.286263797015736e-17,108.79973030090332,108.79975090026855)"><path d="M64 88a3.988 3.988 0 0 1-2.828-1.172l-40-40c-1.563-1.563-1.563-4.094 0-5.656s4.094-1.563 5.656 0L64 78.344l37.172-37.172c1.563-1.563 4.094-1.563 5.656 0s1.563 4.094 0 5.656l-40 40A3.988 3.988 0 0 1 64 88z" fill="#d0d0d0" data-original="#000000" class="" opacity="1"></path></g></svg>