<svg xmlns="http://www.w3.org/2000/svg" version="1.1" xmlns:xlink="http://www.w3.org/1999/xlink" xmlns:svgjs="http://svgjs.com/svgjs" width="512" height="512" x="0" y="0" viewBox="0 0 32 32" style="enable-background:new 0 0 512 512" xml:space="preserve" class=""><circle r="16" cx="16" cy="16" fill="#2c2c2c" shape="circle" transform="matrix(0.7,0,0,0.7,4.800000000000001,4.800000000000001)"></circle><g transform="matrix(0.7,0,0,0.7,4.796310138702394,4.803687858581544)"><path d="m17.414 16 6.293-6.293a1 1 0 0 0-1.414-1.414L16 14.586 9.707 8.293a1 1 0 0 0-1.414 1.414L14.586 16l-6.293 6.293a1 1 0 1 0 1.414 1.414L16 17.414l6.293 6.293a1 1 0 0 0 1.414-1.414z" fill="#d0d0d0" data-original="#000000" opacity="1"></path></g></svg>