<svg xmlns="http://www.w3.org/2000/svg" version="1.1" xmlns:xlink="http://www.w3.org/1999/xlink" xmlns:svgjs="http://svgjs.com/svgjs" width="512" height="512" x="0" y="0" viewBox="0 0 24 24" style="enable-background:new 0 0 512 512" xml:space="preserve" class=""><g><path d="m21.486 7.126-9-5a1 1 0 0 0-.972 0l-9 5a1 1 0 0 0-.388 1.36.988.988 0 0 0 .874.5V21a1 1 0 0 0 1 1h16a1 1 0 0 0 1-1V9a1 1 0 0 0 .486-1.874zM14 20h-4v-5h4zm2 0v-6a1 1 0 0 0-1-1H9a1 1 0 0 0-1 1v6H5V8.033l7-3.889 7 3.889V20z" fill="#1d8954" data-original="#000000" class=""></path></g></svg>