<svg xmlns="http://www.w3.org/2000/svg" version="1.1" xmlns:xlink="http://www.w3.org/1999/xlink" xmlns:svgjs="http://svgjs.com/svgjs" width="512" height="512" x="0" y="0" viewBox="0 0 24 24" style="enable-background:new 0 0 512 512" xml:space="preserve" class=""><g><path d="M1.25 2.5A.75.75 0 0 1 2 1.75h20a.75.75 0 0 1 0 1.5H2a.75.75 0 0 1-.75-.75zM2 9.25h9a.75.75 0 0 0 0-1.5H2a.75.75 0 0 0 0 1.5zm6 4.5H2a.75.75 0 0 0 0 1.5h6a.75.75 0 0 0 0-1.5zm-2 6H2a.75.75 0 0 0 0 1.5h4a.75.75 0 0 0 0-1.5zM21.861 7.176a2.59 2.59 0 0 1 .889 2.194v8.5a2.927 2.927 0 1 1-2.926-2.927 2.892 2.892 0 0 1 1.426.387V11.9l-6.48 1.77v5.65a2.927 2.927 0 1 1-2.927-2.92 2.883 2.883 0 0 1 1.427.388V10.55a2.487 2.487 0 0 1 1.889-2.473L19.514 6.9a2.619 2.619 0 0 1 2.347.276zM13.27 19.323a1.427 1.427 0 1 0-1.427 1.427 1.428 1.428 0 0 0 1.427-1.427zm7.98-1.45a1.427 1.427 0 1 0-1.426 1.427 1.428 1.428 0 0 0 1.426-1.427z" data-name="1" fill="#8a8a8a" data-original="#000000" class=""></path></g></svg>