<svg xmlns="http://www.w3.org/2000/svg" version="1.1" xmlns:xlink="http://www.w3.org/1999/xlink" xmlns:svgjs="http://svgjs.com/svgjs" width="512" height="512" x="0" y="0" viewBox="0 0 511.449 511.449" style="enable-background:new 0 0 512 512" xml:space="preserve" class=""><g><path fill="#8a8a8a" d="M436.508 74.941c-99.913-99.913-261.639-99.928-361.566 0-99.913 99.909-99.93 261.639 0 361.566 99.913 99.913 261.639 99.928 361.566 0 99.913-99.911 99.93-261.64 0-361.566zm-180.784 244.45c-35.106 0-63.667-28.561-63.667-63.667s28.561-63.667 63.667-63.667 63.667 28.561 63.667 63.667-28.56 63.667-63.667 63.667z" data-original="#ffebd2" class=""></path><path fill="#8a8a8a" d="M231.344 1.208C110.669 12.632 14.17 108.137 1.469 228.663c-1.376 13.061 9.471 24.231 22.665 23.126 121.147-10.31 218.474-106.262 230.094-227.674 1.255-13.118-9.76-24.148-22.884-22.907z" data-original="#fff3e4" class=""></path><path fill="#1d8954" d="M507.196 361.276c-16.147-42.792-69.422-54.36-102.139-24.768-32.708-29.587-86.512-18.187-102.398 25.454-9.123 25.064-2.121 52.271 17.824 69.691l69.329 73.18c8.395 8.86 22.302 8.626 30.476.016l70.252-74.004c19.44-17.655 25.984-44.843 16.656-69.569z" data-original="#fe929f" class=""></path></g></svg>