<svg xmlns="http://www.w3.org/2000/svg" version="1.1" xmlns:xlink="http://www.w3.org/1999/xlink" xmlns:svgjs="http://svgjs.com/svgjs" width="512" height="512" x="0" y="0" viewBox="0 0 511.448 511.448" style="enable-background:new 0 0 512 512" xml:space="preserve" class=""><g><path fill="#1d8954" d="M436.508 74.94c-99.913-99.913-261.64-99.928-361.567 0-99.913 99.913-99.928 261.64 0 361.567 99.913 99.913 261.64 99.928 361.567 0 99.912-99.912 99.927-261.639 0-361.567z" data-original="#ffebd2"></path><path fill="#1d8954" d="M231.344 1.207C110.669 12.633 14.17 108.135 1.469 228.663c-1.381 13.103 9.53 24.246 22.665 23.125 121.147-10.31 218.473-106.262 230.094-227.673 1.256-13.116-9.755-24.145-22.884-22.908z" data-original="#fff3e4" class=""></path><g fill="#c79a83"><path d="M298.39 160.057c-11.598 0-21 9.402-21 21V330.39c0 11.598 9.402 21 21 21s21-9.402 21-21V181.057c0-11.598-9.401-21-21-21zM213.057 160.057c-11.598 0-21 9.402-21 21V330.39c0 11.598 9.402 21 21 21s21-9.402 21-21V181.057c0-11.598-9.401-21-21-21z" fill="#000000" data-original="#c79a83" class=""></path></g></g></svg>