<svg xmlns="http://www.w3.org/2000/svg" version="1.1" xmlns:xlink="http://www.w3.org/1999/xlink" xmlns:svgjs="http://svgjs.com/svgjs" width="512" height="512" x="0" y="0" viewBox="0 0 320 320" style="enable-background:new 0 0 512 512" xml:space="preserve" class=""><g transform="matrix(1.5000000000000007,0,0,1.5000000000000007,-80.00000000000006,-80.00000000000006)"><path d="M112 0H16C7.168 0 0 7.168 0 16v288c0 8.832 7.168 16 16 16h96c8.832 0 16-7.168 16-16V16c0-8.832-7.168-16-16-16zM304 0h-96c-8.832 0-16 7.168-16 16v288c0 8.832 7.168 16 16 16h96c8.832 0 16-7.168 16-16V16c0-8.832-7.168-16-16-16z" fill="#ffffff" data-original="#000000" class=""></path></g></svg>