<svg xmlns="http://www.w3.org/2000/svg" version="1.1" xmlns:xlink="http://www.w3.org/1999/xlink" xmlns:svgjs="http://svgjs.com/svgjs" width="512" height="512" x="0" y="0" viewBox="0 0 511.449 511.449" style="enable-background:new 0 0 512 512" xml:space="preserve" class=""><g><path fill="#1d8954" d="M436.508 74.941c-99.913-99.913-261.639-99.928-361.566 0-99.914 99.912-99.93 261.64 0 361.567 99.913 99.913 261.639 99.928 361.566 0 99.913-99.912 99.929-261.64 0-361.567z" data-original="#ffebd2" class=""></path><path fill="#1d8954" d="M231.345 1.208C110.67 12.633 14.17 108.135 1.47 228.664c-1.381 13.105 9.531 24.245 22.666 23.125C145.265 241.48 242.607 145.544 254.228 24.116c1.256-13.12-9.762-24.148-22.883-22.908z" data-original="#fff3e4" class=""></path><path fill="#000000" d="m332.617 239.148-96-74.667c-13.774-10.715-33.893-.863-33.893 16.577v149.333c0 17.563 20.25 27.186 33.893 16.577l96-74.667c10.796-8.398 10.809-24.745 0-33.153z" data-original="#99d856" class=""></path></g></svg>