<svg xmlns="http://www.w3.org/2000/svg" version="1.1" xmlns:xlink="http://www.w3.org/1999/xlink" xmlns:svgjs="http://svgjs.com/svgjs" width="512" height="512" x="0" y="0" viewBox="0 0 32 32" style="enable-background:new 0 0 512 512" xml:space="preserve" class=""><g><path d="M1.28 13.62c.22.12.47.18.72.18.28 0 .56-.08.81-.23l7.3-4.65c.43-.28.69-.76.69-1.27s-.26-.99-.69-1.26l-7.3-4.66a1.5 1.5 0 0 0-1.53-.04C.8 1.95.5 2.45.5 3v9.3c0 .55.3 1.06.78 1.32zM30 3.5H16a1.5 1.5 0 1 0 0 3h14a1.5 1.5 0 0 0 0-3zM30 9.5H16a1.5 1.5 0 1 0 0 3h14a1.5 1.5 0 0 0 0-3zM30 15.5H2a1.5 1.5 0 1 0 0 3h28a1.5 1.5 0 0 0 0-3zM30 21.5H2a1.5 1.5 0 1 0 0 3h28a1.5 1.5 0 0 0 0-3zM30 27.5H2a1.5 1.5 0 1 0 0 3h28a1.5 1.5 0 0 0 0-3z" fill="#ffffff" data-original="#000000" class=""></path></g></svg>