<svg xmlns="http://www.w3.org/2000/svg" version="1.1" xmlns:xlink="http://www.w3.org/1999/xlink" xmlns:svgjs="http://svgjs.com/svgjs" width="512" height="512" x="0" y="0" viewBox="0 0 24 24" style="enable-background:new 0 0 512 512" xml:space="preserve" class=""><g><path fill="#e9e9e9" d="M15 5.1A7 7 0 1 1 5.098 15 7 7 0 0 1 15 5.1z" data-original="#bbdefb" class=""></path><path fill="#1d8954" d="M10.05 3.05v14a7 7 0 0 0 0-14z" data-original="#90caf9" class=""></path><path d="m21.707 20.293-5.342-5.342a8.01 8.01 0 1 0-1.414 1.414l5.342 5.342a1 1 0 0 0 1.414-1.414zm-15.9-6a6 6 0 1 1 8.485-8.486 6 6 0 0 1-8.484 8.486z" fill="#ffffff" data-original="#000000" class=""></path></g></svg>