<svg xmlns="http://www.w3.org/2000/svg" version="1.1" xmlns:xlink="http://www.w3.org/1999/xlink" xmlns:svgjs="http://svgjs.com/svgjs" width="512" height="512" x="0" y="0" viewBox="0 0 32 32" style="enable-background:new 0 0 512 512" xml:space="preserve" class=""><g><path d="M4.127 23.652h3.56l8.335 5.313a2.56 2.56 0 0 0 2.61.086 2.563 2.563 0 0 0 1.332-2.248V5.197a2.563 2.563 0 0 0-3.942-2.162L7.687 8.348h-3.56A3.63 3.63 0 0 0 .5 11.974v8.051c0 2 1.627 3.627 3.627 3.627zM9.624 10.67l7.34-4.678v20.016l-7.34-4.678zM3.5 11.974c0-.345.281-.626.627-.626h2.497v9.304H4.127a.628.628 0 0 1-.627-.627zM31.06 11.814a1.5 1.5 0 0 0-2.12 0l-2.065 2.065-2.064-2.065a1.5 1.5 0 1 0-2.122 2.121L24.754 16l-2.065 2.064a1.5 1.5 0 1 0 2.122 2.121l2.064-2.064 2.064 2.064c.293.293.677.44 1.061.44s.768-.147 1.06-.44a1.5 1.5 0 0 0 0-2.12L28.997 16l2.065-2.065a1.5 1.5 0 0 0 0-2.12z" fill="#8a8a8a" data-original="#000000" class=""></path></g></svg>